<svg width="11" height="14" viewBox="0 0 11 14" fill="none" xmlns="http://www.w3.org/2000/svg">
<path d="M9.84665 4.74219H0.5C0.223858 4.74219 0 4.96604 0 5.24219V6.54032C0 6.68545 0.0630641 6.82343 0.172812 6.9184L3.52496 9.8193C3.63471 9.91427 3.69777 10.0522 3.69777 10.1974V12.8403C3.69777 13.2161 4.09686 13.4576 4.42978 13.2832L6.41644 12.2426C6.5812 12.1563 6.68443 11.9856 6.68443 11.7996V10.1959C6.68443 10.0516 6.74678 9.91437 6.85544 9.81942L10.1756 6.91827C10.2843 6.82333 10.3467 6.68606 10.3467 6.54176V5.24219C10.3467 4.96605 10.1228 4.74219 9.84665 4.74219Z" fill="#A9ABC1"/>
<circle cx="1.99105" cy="3.03231" r="1.13778" fill="#A9ABC1"/>
<ellipse cx="7.39572" cy="3.13897" rx="1.28" ry="1.24444" fill="#A9ABC1"/>
<circle cx="4.62217" cy="1.29203" r="0.959999" fill="#A9ABC1"/>
</svg>
